# xmcd
#
# Track frame offsets: 
#        150
#        17439
#        39855
#        56503
#        78215
#        104511
#        155272
#        158991
#        174016
#        210671
#
# Disc length: 3140 seconds
#
# Revision: 0
# Processed by: cddbd v1.5.2PL0 Copyright (c) Steve Scherf et al.
# Submitted via: ExactAudioCopy v0.95b3
#
DISCID=670c420a
DTITLE=George Harrison  - All Things Must Pass [CD2] Dr.Ebbetts
DYEAR=1900
DGENRE=
TTITLE0=All Things Must Pass
TTITLE1=I Dig Love
TTITLE2=Art Of Dying
TTITLE3=Isn't It A Pity (Version Two)
TTITLE4=Hear Me Lord
TTITLE5=Out Of The Blue
TTITLE6=It's Johnny's Birthday
TTITLE7=Plug Me In
TTITLE8=I Remember Jeep
TTITLE9=Thanks For The Pepperoni
EXTD=
EXTT0=
EXTT1=
EXTT2=
EXTT3=
EXTT4=
EXTT5=
EXTT6=
EXTT7=
EXTT8=
EXTT9=
PLAYORDER=
